<svg id="svg" version="1.1" xmlns="http://www.w3.org/2000/svg" xmlns:xlink="http://www.w3.org/1999/xlink" width="400" height="400" viewBox="0, 0, 400,400"><g id="svgg"><path id="path0" d="M138.923 185.997 C 131.244 187.614,126.089 198.369,130.021 204.568 C 136.527 214.827,149.285 214.136,154.042 203.267 C 157.770 194.746,148.369 184.008,138.923 185.997 M171.000 185.860 C 162.856 186.969,156.790 198.110,160.926 204.361 C 162.466 206.687,165.610 210.145,166.568 210.565 C 170.095 212.114,173.273 212.434,175.972 211.512 C 177.825 210.880,181.600 208.527,181.600 208.005 C 181.600 207.340,180.673 207.542,179.193 208.530 C 171.346 213.768,164.400 209.492,164.400 199.424 C 164.400 190.130,169.070 185.136,175.629 187.416 C 178.449 188.396,178.865 188.844,178.312 190.308 C 177.376 192.788,180.116 194.924,181.920 193.120 C 184.676 190.364,176.728 185.080,171.000 185.860 M187.200 186.138 C 187.200 186.434,187.560 187.002,188.000 187.400 C 188.762 188.090,188.800 188.632,188.800 198.866 C 188.800 209.113,188.763 209.639,188.000 210.293 C 186.089 211.929,186.572 212.000,199.600 212.000 L 212.000 212.000 212.000 208.400 C 212.000 204.294,211.503 203.757,210.200 206.457 C 209.760 207.368,208.709 208.673,207.864 209.357 L 206.328 210.600 199.864 210.726 L 193.400 210.852 193.529 199.526 C 193.637 189.985,193.755 188.092,194.277 187.515 C 194.618 187.138,194.791 186.553,194.661 186.215 C 194.338 185.372,187.200 185.298,187.200 186.138 M229.088 186.900 C 226.911 191.591,225.466 195.187,224.789 197.600 C 223.355 202.715,219.740 209.642,218.109 210.400 C 215.922 211.416,216.466 212.000,219.600 212.000 C 222.556 212.000,222.963 211.685,221.743 210.337 C 220.992 209.508,221.873 206.298,223.125 205.300 C 223.772 204.785,232.140 204.580,233.844 205.037 C 234.966 205.339,235.953 209.106,235.291 210.561 C 234.667 211.929,234.873 212.000,239.467 212.000 C 243.870 212.000,244.370 211.737,242.300 210.506 C 241.336 209.933,240.522 208.759,239.149 205.966 C 236.508 200.591,236.004 199.403,235.197 196.650 C 234.544 194.418,234.205 193.523,232.609 189.800 C 231.096 186.270,230.716 185.600,230.227 185.600 C 229.932 185.600,229.420 186.185,229.088 186.900 M248.267 185.867 C 247.511 186.623,247.992 193.600,248.800 193.600 C 249.388 193.600,249.600 193.333,249.600 192.594 C 249.600 191.031,251.214 188.927,253.278 187.800 C 255.774 186.437,264.704 186.394,264.472 187.747 C 264.303 188.732,260.116 195.073,259.217 195.706 C 258.348 196.318,255.931 200.115,255.210 202.000 C 254.916 202.770,254.098 204.030,253.392 204.800 C 252.324 205.965,249.814 209.508,248.646 211.500 C 248.414 211.895,250.748 212.000,259.776 212.000 L 271.200 212.000 271.200 208.400 C 271.200 204.294,270.703 203.757,269.400 206.457 C 267.761 209.851,266.245 210.581,260.518 210.734 C 257.468 210.815,255.348 210.708,255.100 210.460 C 254.583 209.943,256.219 207.084,258.527 204.473 C 259.447 203.431,261.176 201.054,262.369 199.190 C 263.562 197.325,265.859 193.785,267.473 191.322 C 269.087 188.860,270.515 186.565,270.647 186.222 C 270.897 185.571,248.911 185.222,248.267 185.867 M143.737 187.348 C 145.085 187.911,147.516 190.451,148.269 192.081 C 148.502 192.587,148.942 193.524,149.246 194.165 C 151.793 199.522,147.726 209.846,142.752 210.653 C 139.761 211.138,135.761 208.930,135.022 206.386 C 134.865 205.844,134.470 204.810,134.144 204.088 C 131.845 199.000,134.314 189.911,138.571 187.790 C 140.836 186.661,141.879 186.572,143.737 187.348 M229.491 194.500 C 230.133 195.655,231.079 197.680,231.594 199.000 C 232.109 200.320,232.657 201.580,232.810 201.800 C 232.964 202.020,233.208 202.695,233.352 203.300 L 233.615 204.400 228.772 204.400 L 223.930 204.400 224.193 202.700 C 224.624 199.912,227.589 192.408,228.262 192.401 C 228.296 192.400,228.849 193.345,229.491 194.500 " stroke="none" fill="#ececec" fill-rule="evenodd"></path><path id="path1" d="M0.000 200.000 L 0.000 400.000 200.000 400.000 L 400.000 400.000 400.000 200.000 L 400.000 0.000 200.000 0.000 L 0.000 0.000 0.000 200.000 M208.000 136.372 C 209.430 136.590,211.320 136.877,212.200 137.009 C 213.080 137.141,214.160 137.393,214.600 137.569 C 215.040 137.744,216.840 138.382,218.600 138.986 C 223.513 140.671,224.309 140.998,225.083 141.643 C 225.952 142.369,228.702 143.683,231.367 144.648 C 232.449 145.040,234.069 146.063,234.967 146.921 C 235.865 147.780,236.889 148.689,237.243 148.941 C 238.087 149.543,243.024 153.912,244.357 155.237 C 244.931 155.807,246.237 157.427,247.260 158.837 C 248.282 160.247,250.095 162.677,251.287 164.238 C 253.945 167.719,254.917 169.547,255.623 172.400 C 255.923 173.610,256.490 175.190,256.884 175.912 C 257.278 176.634,257.600 177.568,257.600 177.989 C 257.600 178.409,257.780 178.864,258.000 179.000 C 258.220 179.136,258.400 179.867,258.400 180.624 L 258.400 182.000 247.849 182.000 L 237.297 182.000 236.890 180.900 C 236.239 179.139,234.881 174.324,234.606 172.800 C 234.365 171.463,233.924 170.220,233.153 168.705 C 232.959 168.323,232.800 167.800,232.800 167.543 C 232.800 167.286,232.314 166.438,231.719 165.659 C 231.125 164.879,229.571 162.612,228.267 160.621 C 226.962 158.629,225.783 156.910,225.647 156.800 C 225.511 156.690,224.595 155.700,223.611 154.600 C 222.626 153.500,220.736 151.746,219.411 150.701 C 218.085 149.657,216.392 148.314,215.650 147.718 C 213.687 146.141,212.970 145.844,209.200 145.044 C 207.330 144.647,205.387 144.160,204.881 143.962 C 203.677 143.488,195.789 143.494,194.895 143.969 C 194.513 144.172,192.670 144.644,190.800 145.017 C 186.546 145.867,186.064 146.127,180.643 150.510 C 177.321 153.196,172.400 158.588,172.400 159.543 C 172.400 159.794,172.220 160.000,172.000 160.000 C 171.780 160.000,171.600 160.172,171.600 160.382 C 171.600 160.750,170.349 162.765,168.894 164.743 C 167.149 167.115,165.952 169.988,164.985 174.121 C 164.584 175.838,164.108 177.333,163.928 177.445 C 163.748 177.556,163.600 178.141,163.600 178.744 C 163.600 179.347,163.375 180.325,163.100 180.917 L 162.600 181.994 152.100 181.997 L 141.600 182.000 141.600 180.424 C 141.600 179.557,141.780 178.736,142.000 178.600 C 142.220 178.464,142.400 178.009,142.400 177.589 C 142.400 177.168,142.732 176.234,143.137 175.512 C 143.542 174.790,143.997 173.545,144.147 172.744 C 144.441 171.176,146.541 166.725,147.569 165.490 C 147.916 165.073,148.534 164.343,148.942 163.866 C 149.351 163.390,150.242 162.190,150.923 161.200 C 151.605 160.210,152.351 159.205,152.581 158.966 C 152.811 158.727,153.360 158.017,153.800 157.387 C 155.092 155.539,160.906 150.126,162.971 148.849 C 163.461 148.546,164.187 147.815,164.584 147.223 C 165.308 146.146,169.266 144.000,170.528 144.000 C 170.898 144.000,171.200 143.820,171.200 143.600 C 171.200 143.380,171.472 143.200,171.805 143.200 C 172.485 143.200,173.800 142.522,175.000 141.555 C 175.765 140.938,179.595 139.416,183.000 138.377 C 183.880 138.109,184.960 137.746,185.400 137.572 C 186.317 137.208,187.705 136.966,192.178 136.388 C 193.926 136.162,195.456 135.876,195.578 135.752 C 195.884 135.441,204.820 135.887,208.000 136.372 M267.244 157.607 C 267.499 158.524,267.523 158.533,267.560 157.724 C 267.612 156.594,268.272 156.196,269.038 156.831 C 270.020 157.647,269.603 159.721,268.400 160.004 C 266.467 160.458,264.614 159.889,264.462 158.795 C 264.386 158.248,264.162 157.603,263.965 157.363 C 263.417 156.695,263.990 156.386,265.552 156.505 C 266.672 156.591,267.025 156.821,267.244 157.607 M146.000 185.975 C 152.168 188.942,155.200 193.247,155.200 199.037 C 155.200 202.796,154.778 204.092,152.801 206.400 C 152.141 207.170,151.601 207.909,151.601 208.042 C 151.599 208.467,146.897 211.600,146.260 211.600 C 145.923 211.600,145.536 211.780,145.400 212.000 C 145.264 212.221,143.470 212.400,141.400 212.400 C 139.330 212.400,137.536 212.221,137.400 212.000 C 137.264 211.780,136.829 211.600,136.433 211.600 C 135.030 211.600,128.962 205.123,128.563 203.200 C 128.448 202.650,128.169 201.463,127.943 200.562 C 125.798 192.035,138.039 182.145,146.000 185.975 M175.800 185.577 C 180.925 187.577,182.800 189.124,182.800 191.354 C 182.800 193.418,182.108 194.160,180.183 194.160 C 177.973 194.160,176.025 191.173,177.600 190.200 C 178.300 189.767,178.031 188.904,177.100 188.594 C 174.570 187.754,172.391 187.359,171.923 187.656 C 171.635 187.839,171.077 187.991,170.683 187.994 C 170.289 187.997,169.749 188.183,169.483 188.407 C 169.217 188.631,168.631 189.126,168.181 189.507 C 162.906 193.968,163.955 206.145,169.903 209.500 C 171.993 210.679,180.000 208.800,180.000 207.130 C 180.000 206.429,181.789 206.985,181.931 207.730 C 182.121 208.726,181.139 209.713,178.890 210.786 C 177.851 211.282,176.687 211.848,176.305 212.044 C 175.353 212.532,168.906 212.495,168.600 212.000 C 168.464 211.780,167.907 211.600,167.361 211.600 C 165.704 211.600,160.033 205.179,159.412 202.600 C 158.817 200.125,158.741 197.590,159.218 196.119 C 160.231 192.999,164.907 186.800,166.247 186.800 C 166.551 186.800,166.800 186.649,166.800 186.464 C 166.800 186.176,168.954 185.574,171.800 185.067 C 172.755 184.897,174.689 185.144,175.800 185.577 M194.700 185.052 C 195.844 185.359,195.897 186.807,194.800 187.800 C 194.038 188.490,194.000 189.032,194.000 199.262 L 194.000 210.000 199.941 210.000 C 206.896 210.000,207.860 209.621,209.627 206.193 C 211.410 202.731,212.176 203.332,212.314 208.300 L 212.428 212.400 199.601 212.400 C 185.432 212.400,185.152 212.346,187.348 210.054 L 188.400 208.956 188.400 198.899 L 188.400 188.841 187.400 187.762 C 185.416 185.621,186.301 184.798,190.580 184.805 C 192.351 184.808,194.205 184.919,194.700 185.052 M231.600 186.214 C 231.600 186.536,231.780 186.800,232.000 186.800 C 232.220 186.800,232.400 187.072,232.400 187.405 C 232.400 187.738,232.565 188.323,232.766 188.705 C 233.822 190.706,236.000 196.373,236.000 197.119 C 236.000 197.405,236.360 198.384,236.800 199.294 C 237.240 200.205,237.600 201.276,237.600 201.675 C 237.600 202.074,237.780 202.400,238.000 202.400 C 238.220 202.400,238.400 202.749,238.400 203.176 C 238.400 203.603,238.597 204.075,238.838 204.223 C 239.079 204.372,239.788 205.636,240.414 207.032 C 241.343 209.103,241.815 209.679,242.976 210.164 C 243.962 210.576,244.400 211.016,244.400 211.592 C 244.400 212.396,244.233 212.421,239.500 212.312 L 234.600 212.200 234.585 210.200 C 234.576 209.100,234.531 207.615,234.485 206.900 L 234.400 205.600 228.787 205.600 C 223.791 205.600,223.151 205.677,222.958 206.300 C 222.839 206.685,222.575 207.313,222.371 207.695 C 221.878 208.618,221.897 210.400,222.400 210.400 C 222.620 210.400,222.800 210.850,222.800 211.400 C 222.800 212.383,222.747 212.400,219.600 212.400 C 215.906 212.400,214.950 211.198,217.670 209.972 C 219.032 209.358,219.187 209.154,220.382 206.400 C 220.811 205.410,221.420 204.150,221.734 203.600 C 222.049 203.050,222.528 202.060,222.800 201.400 C 223.071 200.740,223.452 199.887,223.647 199.505 C 223.841 199.123,224.000 198.359,224.000 197.807 C 224.000 197.255,224.630 195.439,225.400 193.772 C 226.170 192.105,226.800 190.485,226.800 190.171 C 226.800 189.857,226.980 189.600,227.200 189.600 C 227.420 189.600,227.600 189.251,227.600 188.824 C 227.600 188.397,227.780 187.936,228.000 187.800 C 228.220 187.664,228.400 187.214,228.400 186.799 C 228.400 185.708,229.930 184.735,230.862 185.233 C 231.268 185.450,231.600 185.892,231.600 186.214 M271.139 185.154 C 271.436 185.342,271.616 185.744,271.539 186.048 C 271.325 186.899,259.820 204.124,259.030 204.777 C 257.988 205.639,256.000 208.654,256.000 209.372 C 256.000 210.264,264.284 210.287,265.999 209.400 C 267.291 208.732,269.043 206.606,269.259 205.443 C 269.473 204.292,270.595 203.732,271.381 204.384 C 271.908 204.822,272.007 205.598,271.914 208.561 L 271.800 212.200 259.700 212.306 C 249.112 212.398,247.600 212.336,247.600 211.806 C 247.600 211.473,247.780 211.200,248.000 211.200 C 248.220 211.200,248.400 211.007,248.400 210.772 C 248.400 210.206,251.916 205.292,253.239 204.008 C 253.811 203.454,254.392 202.534,254.531 201.964 C 254.829 200.741,258.348 195.258,259.378 194.412 C 260.263 193.685,264.000 188.192,264.000 187.618 C 264.000 187.019,256.585 187.085,254.828 187.700 C 252.934 188.363,251.296 189.849,250.545 191.586 C 249.515 193.969,249.339 194.200,248.556 194.200 C 247.428 194.200,247.167 185.370,248.287 185.078 C 249.597 184.738,270.592 184.807,271.139 185.154 M139.940 187.865 C 135.416 188.633,132.389 198.610,134.971 204.248 C 135.537 205.485,136.000 206.668,136.000 206.877 C 136.000 208.173,139.399 209.997,141.819 209.999 C 146.700 210.002,151.430 199.817,148.834 194.895 C 148.632 194.513,148.193 193.570,147.858 192.800 C 146.379 189.403,143.062 187.336,139.940 187.865 M227.994 193.800 C 227.987 194.240,227.630 195.050,227.200 195.600 C 226.770 196.150,226.414 196.827,226.409 197.105 C 226.404 197.383,226.241 197.923,226.047 198.305 C 225.686 199.017,224.800 202.498,224.800 203.206 C 224.800 203.438,226.439 203.600,228.800 203.600 C 232.089 203.600,232.800 203.493,232.800 203.000 C 232.800 202.670,232.620 202.400,232.400 202.400 C 232.180 202.400,232.000 202.128,232.000 201.795 C 232.000 201.462,231.835 200.877,231.634 200.495 C 231.432 200.113,230.973 199.080,230.614 198.200 C 230.255 197.320,229.758 196.240,229.510 195.800 C 229.261 195.360,228.821 194.550,228.532 194.000 C 228.069 193.122,228.004 193.097,227.994 193.800 M164.143 218.200 C 164.473 218.530,164.942 219.835,165.185 221.100 C 165.428 222.365,165.829 223.760,166.076 224.200 C 166.323 224.640,166.649 225.270,166.800 225.600 C 168.580 229.482,171.166 233.623,172.916 235.395 C 173.565 236.052,174.684 237.508,175.403 238.631 C 177.184 241.415,179.324 243.410,181.759 244.555 C 182.882 245.083,184.250 245.939,184.800 246.457 C 185.350 246.976,186.250 247.601,186.800 247.846 C 189.375 248.996,189.941 249.211,192.000 249.817 C 193.210 250.173,194.613 250.630,195.119 250.832 C 196.593 251.422,203.054 251.262,205.538 250.574 C 210.840 249.105,213.677 247.880,215.285 246.364 C 215.889 245.795,217.153 244.989,218.092 244.573 C 220.207 243.638,223.437 240.675,224.408 238.779 C 224.808 237.998,225.834 236.648,226.689 235.779 C 228.732 233.702,229.593 232.430,231.702 228.376 C 232.668 226.519,233.655 224.640,233.895 224.200 C 234.135 223.760,234.547 222.320,234.810 221.000 C 235.533 217.380,234.795 217.600,246.206 217.600 C 256.603 217.600,257.502 217.741,256.581 219.231 C 256.459 219.429,256.090 220.621,255.762 221.880 C 255.435 223.139,254.724 224.749,254.183 225.458 C 253.642 226.167,253.200 226.843,253.200 226.961 C 253.200 227.761,248.717 234.035,247.060 235.554 C 246.433 236.130,245.678 237.067,245.382 237.638 C 244.535 239.271,239.585 243.961,237.600 245.010 C 236.610 245.533,235.387 246.408,234.883 246.955 C 234.379 247.501,233.434 248.184,232.783 248.472 C 232.132 248.760,231.600 249.096,231.600 249.219 C 231.600 249.343,230.205 250.152,228.500 251.018 C 226.795 251.884,225.300 252.727,225.179 252.892 C 224.385 253.968,218.926 255.510,211.200 256.842 C 205.017 257.907,194.743 257.913,188.800 256.854 C 180.518 255.379,176.625 254.312,175.254 253.140 C 174.894 252.833,173.700 252.159,172.600 251.643 C 170.015 250.431,165.094 247.263,164.675 246.541 C 164.496 246.232,163.596 245.624,162.675 245.188 C 160.696 244.251,155.581 239.514,154.698 237.800 C 154.358 237.140,153.537 236.117,152.873 235.526 C 151.622 234.413,148.400 230.331,148.400 229.859 C 148.400 229.711,147.603 228.378,146.630 226.895 C 145.656 225.413,144.646 223.390,144.386 222.400 C 144.125 221.410,143.728 220.207,143.503 219.727 C 142.529 217.649,142.763 217.600,153.559 217.600 C 161.902 217.600,163.642 217.699,164.143 218.200 " stroke="none" fill="#040404" fill-rule="evenodd"></path><path id="path2" d="M193.000 136.779 C 191.900 136.953,190.100 137.224,189.000 137.381 C 187.900 137.538,186.100 137.990,185.000 138.385 C 183.900 138.779,181.656 139.528,180.014 140.048 C 178.372 140.567,176.482 141.361,175.814 141.811 C 174.217 142.888,169.688 145.025,168.312 145.351 C 167.714 145.493,166.454 146.346,165.512 147.246 C 164.570 148.146,163.501 149.095,163.135 149.354 C 162.769 149.614,161.260 150.900,159.782 152.213 C 158.303 153.526,156.843 154.747,156.536 154.926 C 156.230 155.105,155.579 155.856,155.090 156.595 C 154.600 157.335,152.645 159.978,150.745 162.470 C 146.430 168.126,145.732 169.312,144.986 172.247 C 144.657 173.541,144.046 175.320,143.628 176.200 C 142.746 178.056,142.000 180.283,142.000 181.060 C 142.000 181.499,143.892 181.600,152.148 181.600 L 162.296 181.600 162.781 179.700 C 163.048 178.655,163.497 177.080,163.778 176.200 C 164.060 175.320,164.519 173.610,164.799 172.400 C 167.030 162.763,181.167 146.513,188.800 144.813 C 190.010 144.543,192.080 144.044,193.400 143.704 C 198.170 142.473,204.089 142.900,211.810 145.030 C 214.923 145.888,222.371 151.783,225.670 156.000 C 228.144 159.163,233.019 166.552,233.586 168.000 C 233.887 168.770,234.260 169.580,234.415 169.800 C 234.569 170.020,234.914 171.190,235.181 172.400 C 235.652 174.535,236.152 176.380,237.215 179.900 L 237.728 181.600 247.864 181.600 C 255.402 181.600,258.000 181.479,258.000 181.127 C 258.000 180.557,256.414 175.966,256.022 175.400 C 255.869 175.180,255.513 174.190,255.231 173.200 C 254.406 170.302,253.100 167.552,251.625 165.610 C 250.869 164.615,248.856 161.960,247.152 159.712 C 245.448 157.463,243.368 155.033,242.530 154.312 C 241.692 153.590,240.375 152.430,239.603 151.733 C 238.831 151.035,237.750 150.109,237.200 149.675 C 236.650 149.240,235.430 148.147,234.488 147.247 C 233.546 146.346,232.286 145.493,231.688 145.351 C 230.348 145.033,225.619 142.851,224.800 142.173 C 224.227 141.698,220.239 140.143,215.670 138.612 C 210.628 136.923,198.363 135.931,193.000 136.779 M144.266 219.700 C 144.402 220.415,144.667 221.303,144.856 221.674 C 145.045 222.044,145.200 222.623,145.200 222.960 C 145.200 223.508,147.576 227.567,150.320 231.707 C 150.869 232.536,152.115 233.976,153.087 234.907 C 154.060 235.838,155.133 237.140,155.472 237.800 C 156.338 239.486,160.639 243.442,162.878 244.610 C 163.910 245.150,164.900 245.839,165.078 246.142 C 165.408 246.708,170.053 249.745,172.200 250.799 C 172.860 251.123,174.210 251.862,175.200 252.440 C 177.348 253.695,179.814 254.493,184.400 255.416 C 190.688 256.682,192.176 256.855,198.600 257.069 C 205.119 257.286,206.878 257.119,214.400 255.572 C 220.562 254.305,221.732 253.995,223.078 253.280 C 223.780 252.906,225.580 251.952,227.078 251.160 C 230.676 249.257,234.443 246.830,235.195 245.930 C 235.528 245.531,236.471 244.884,237.291 244.491 C 239.216 243.570,243.683 239.273,244.820 237.251 C 245.305 236.387,246.084 235.475,246.551 235.223 C 247.297 234.821,249.705 231.454,253.432 225.600 C 254.292 224.250,255.849 219.923,255.989 218.493 C 255.995 218.434,251.457 218.434,245.905 218.493 L 235.811 218.600 235.498 220.773 C 235.326 221.969,234.896 223.499,234.542 224.173 C 234.187 224.848,233.369 226.462,232.723 227.759 C 231.026 231.169,228.909 234.392,227.312 236.000 C 226.547 236.770,225.594 238.030,225.193 238.800 C 224.139 240.823,220.492 244.227,218.400 245.141 C 217.410 245.573,216.150 246.349,215.600 246.865 C 211.733 250.489,200.361 252.801,194.340 251.186 C 189.333 249.843,186.138 248.453,184.115 246.739 C 183.408 246.141,182.058 245.302,181.115 244.877 C 178.923 243.888,175.920 241.058,174.878 239.000 C 174.432 238.120,173.279 236.590,172.314 235.600 C 169.658 232.874,165.132 224.543,164.601 221.400 C 164.043 218.101,165.101 218.400,153.983 218.400 L 144.020 218.400 144.266 219.700 " stroke="none" fill="#5271f7" fill-rule="evenodd"></path><path id="path3" d="M264.045 156.772 C 263.648 157.017,263.676 157.144,264.166 157.332 C 264.515 157.465,264.800 158.007,264.800 158.535 C 264.800 159.319,265.052 159.536,266.171 159.718 C 268.444 160.087,269.262 159.687,269.121 158.279 C 268.971 156.771,268.268 156.474,267.725 157.689 L 267.318 158.600 267.025 157.678 C 266.864 157.171,266.522 156.832,266.266 156.924 C 266.010 157.016,265.520 156.949,265.178 156.774 C 264.837 156.599,264.327 156.598,264.045 156.772 M138.400 185.600 C 138.070 185.813,137.420 185.991,136.954 185.994 C 134.645 186.011,128.912 193.185,128.235 196.906 C 127.258 202.280,131.099 208.972,136.661 211.587 C 138.512 212.457,143.746 212.740,145.105 212.044 C 145.487 211.849,146.511 211.354,147.381 210.944 C 150.357 209.543,154.846 204.430,154.772 202.526 C 154.755 202.108,154.435 202.477,154.014 203.400 C 150.125 211.935,139.813 214.649,133.630 208.766 C 127.125 202.576,126.918 195.603,133.057 189.454 C 140.834 181.663,153.937 187.286,154.834 198.800 L 155.068 201.800 155.134 199.057 C 155.302 192.108,148.504 185.189,141.525 185.206 C 140.136 185.209,138.730 185.387,138.400 185.600 M169.000 185.702 C 166.151 186.692,165.220 187.295,163.762 189.093 C 162.912 190.142,161.987 191.239,161.706 191.531 C 157.276 196.137,158.878 204.790,165.133 210.041 C 169.285 213.528,176.529 213.166,181.100 209.244 C 183.284 207.370,181.616 206.217,179.122 207.877 C 173.288 211.757,169.318 211.027,165.752 205.418 C 164.676 203.725,164.662 195.475,165.731 192.704 C 166.625 190.389,168.847 188.396,171.362 187.654 C 173.271 187.091,173.339 187.102,176.900 188.548 C 178.066 189.022,178.319 189.921,177.513 190.727 C 177.130 191.110,177.186 191.512,177.776 192.607 C 179.154 195.167,182.800 194.369,182.800 191.507 C 182.800 190.134,180.777 187.600,179.681 187.600 C 179.416 187.600,179.199 187.465,179.197 187.300 C 179.193 186.899,177.219 186.000,176.344 186.000 C 175.961 186.000,175.536 185.820,175.400 185.600 C 175.082 185.086,170.566 185.158,169.000 185.702 M186.800 186.124 C 186.800 186.648,187.160 187.402,187.600 187.800 C 188.361 188.488,188.400 189.032,188.400 198.862 C 188.400 208.667,188.359 209.241,187.600 210.000 C 185.261 212.339,185.566 212.400,199.600 212.400 L 212.400 212.400 212.400 208.424 C 212.400 206.237,212.236 204.346,212.036 204.222 C 211.342 203.794,210.590 204.419,209.781 206.097 C 209.334 207.025,208.197 208.372,207.253 209.092 L 205.538 210.400 199.769 210.400 L 194.000 210.400 194.000 199.383 C 194.000 188.864,194.037 188.327,194.812 187.495 C 196.411 185.779,195.791 185.411,191.095 185.286 C 186.807 185.173,186.800 185.174,186.800 186.124 M228.541 186.700 C 228.202 187.525,227.653 188.830,227.321 189.600 C 226.990 190.370,226.573 191.360,226.395 191.800 C 226.217 192.240,225.696 193.422,225.236 194.426 C 224.776 195.431,224.400 196.459,224.400 196.712 C 224.400 199.851,218.797 210.400,217.130 210.400 C 216.618 210.400,216.400 210.698,216.400 211.400 C 216.400 212.378,216.466 212.400,219.413 212.400 C 222.504 212.400,223.565 211.805,222.453 210.693 C 221.483 209.723,222.485 205.779,223.790 205.429 C 225.021 205.098,233.334 205.170,233.878 205.516 C 234.647 206.005,235.257 209.398,234.795 210.614 C 234.574 211.193,234.496 211.832,234.621 212.034 C 234.915 212.510,243.883 212.513,244.178 212.036 C 244.545 211.441,243.965 210.401,243.257 210.387 C 242.069 210.364,241.354 209.448,239.521 205.600 C 236.714 199.708,236.123 198.308,235.800 196.800 C 235.635 196.030,235.145 194.590,234.710 193.600 C 234.276 192.610,233.782 191.440,233.614 191.000 C 231.716 186.049,231.211 185.200,230.161 185.200 C 229.380 185.200,229.023 185.530,228.541 186.700 M247.867 185.467 C 247.720 185.613,247.600 187.593,247.600 189.867 L 247.600 194.000 248.700 193.946 C 249.664 193.898,249.687 193.869,248.886 193.716 C 247.999 193.546,247.975 193.425,248.086 189.670 L 248.200 185.800 259.545 185.694 C 269.723 185.598,270.866 185.652,270.649 186.216 C 270.516 186.562,269.087 188.860,267.473 191.322 C 265.859 193.785,263.562 197.325,262.369 199.190 C 261.176 201.054,259.447 203.431,258.527 204.473 C 256.219 207.084,254.583 209.943,255.100 210.460 C 255.348 210.708,257.468 210.815,260.518 210.734 C 266.245 210.581,267.761 209.851,269.400 206.457 C 270.703 203.757,271.200 204.294,271.200 208.400 L 271.200 212.000 259.776 212.000 C 250.748 212.000,248.414 211.895,248.646 211.500 C 249.814 209.508,252.324 205.965,253.392 204.800 C 254.098 204.030,254.916 202.770,255.210 202.000 C 255.931 200.115,258.348 196.318,259.217 195.706 C 260.116 195.073,264.303 188.732,264.472 187.747 C 264.704 186.394,255.774 186.437,253.278 187.800 C 251.243 188.911,249.582 191.049,249.630 192.494 C 249.657 193.286,249.720 193.249,250.130 192.200 C 251.646 188.327,253.825 187.200,259.796 187.200 C 264.784 187.200,265.138 188.000,261.713 191.529 C 261.431 191.819,261.200 192.228,261.200 192.438 C 261.200 192.647,260.524 193.579,259.697 194.509 C 257.097 197.435,255.772 199.341,255.044 201.200 C 254.657 202.190,253.834 203.540,253.215 204.200 C 251.525 206.004,247.594 211.861,247.882 212.149 C 248.020 212.287,253.413 212.400,259.867 212.400 L 271.600 212.400 271.600 208.424 C 271.600 206.237,271.436 204.346,271.236 204.222 C 270.551 203.799,269.740 204.432,269.064 205.916 C 267.378 209.620,265.865 210.397,260.324 210.399 C 254.939 210.400,254.403 209.111,258.276 205.481 C 259.028 204.776,260.190 203.316,260.858 202.235 C 261.526 201.155,262.314 200.029,262.610 199.733 C 262.906 199.437,263.262 198.836,263.401 198.398 C 263.540 197.959,263.822 197.600,264.027 197.600 C 264.232 197.600,264.400 197.393,264.400 197.141 C 264.400 196.888,266.022 194.264,268.003 191.308 C 269.985 188.353,271.505 185.769,271.380 185.567 C 271.121 185.149,248.282 185.051,247.867 185.467 M176.957 186.717 C 182.150 188.527,184.475 193.600,180.111 193.600 C 178.375 193.600,177.603 192.187,178.312 190.308 C 178.865 188.844,178.449 188.396,175.629 187.416 C 169.070 185.136,164.400 190.130,164.400 199.424 C 164.400 209.492,171.346 213.768,179.193 208.530 C 180.673 207.542,181.600 207.340,181.600 208.005 C 181.600 208.527,177.825 210.880,175.972 211.512 C 173.273 212.434,170.095 212.114,166.568 210.565 C 165.610 210.145,162.466 206.687,160.926 204.361 C 159.313 201.922,159.330 196.666,160.962 193.710 C 164.781 186.795,170.281 184.389,176.957 186.717 M194.661 186.215 C 194.791 186.553,194.618 187.138,194.277 187.515 C 193.755 188.092,193.637 189.985,193.529 199.526 L 193.400 210.852 199.864 210.726 L 206.328 210.600 207.864 209.357 C 208.709 208.673,209.760 207.368,210.200 206.457 C 211.503 203.757,212.000 204.294,212.000 208.400 L 212.000 212.000 199.600 212.000 C 186.572 212.000,186.089 211.929,188.000 210.293 C 188.763 209.639,188.800 209.113,188.800 198.866 C 188.800 188.632,188.762 188.090,188.000 187.400 C 186.397 185.949,186.942 185.600,190.813 185.600 C 193.694 185.600,194.473 185.725,194.661 186.215 M231.429 187.100 C 232.134 188.689,232.699 189.998,233.802 192.600 C 234.175 193.480,234.803 195.302,235.197 196.650 C 236.004 199.403,236.508 200.591,239.149 205.966 C 240.522 208.759,241.336 209.933,242.300 210.506 C 244.370 211.737,243.870 212.000,239.467 212.000 C 234.873 212.000,234.667 211.929,235.291 210.561 C 235.953 209.106,234.966 205.339,233.844 205.037 C 232.140 204.580,223.772 204.785,223.125 205.300 C 221.873 206.298,220.992 209.508,221.743 210.337 C 222.963 211.685,222.556 212.000,219.600 212.000 C 216.466 212.000,215.922 211.416,218.109 210.400 C 219.740 209.642,223.355 202.715,224.789 197.600 C 225.466 195.187,226.911 191.591,229.088 186.900 C 229.879 185.194,230.610 185.257,231.429 187.100 M138.571 187.790 C 134.314 189.911,131.845 199.000,134.144 204.088 C 134.470 204.810,134.865 205.844,135.022 206.386 C 135.761 208.930,139.761 211.138,142.752 210.653 C 147.726 209.846,151.793 199.522,149.246 194.165 C 148.942 193.524,148.502 192.587,148.269 192.081 C 146.206 187.611,142.351 185.906,138.571 187.790 M143.310 187.788 C 144.770 188.398,147.093 190.812,147.922 192.581 C 148.185 193.142,148.625 194.078,148.900 194.663 C 149.999 196.998,149.222 205.200,147.902 205.200 C 147.736 205.200,147.600 205.458,147.600 205.773 C 147.600 206.560,144.018 209.980,142.901 210.261 C 138.188 211.444,134.077 206.364,134.027 199.295 C 134.012 197.257,134.170 195.277,134.379 194.895 C 134.587 194.513,135.051 193.258,135.409 192.106 C 136.088 189.923,137.358 188.661,139.794 187.748 C 141.470 187.119,141.716 187.122,143.310 187.788 M226.729 195.301 C 225.158 198.398,224.612 199.992,224.193 202.700 L 223.930 204.400 228.772 204.400 L 233.615 204.400 233.352 203.300 C 233.208 202.695,232.964 202.020,232.810 201.800 C 232.657 201.580,232.109 200.320,231.594 199.000 C 230.822 197.022,228.488 192.398,228.262 192.401 C 228.228 192.401,227.538 193.706,226.729 195.301 M230.451 197.528 C 230.907 198.557,231.463 199.850,231.687 200.400 C 231.910 200.950,232.252 201.713,232.447 202.095 C 233.331 203.833,233.015 204.000,228.833 204.000 C 226.174 204.000,224.816 203.847,224.712 203.535 C 224.386 202.557,225.801 197.799,227.072 195.600 C 227.389 195.050,227.752 194.276,227.877 193.880 C 228.141 193.042,229.010 194.274,230.451 197.528 " stroke="none" fill="#575757" fill-rule="evenodd"></path><path id="path4" d="M195.578 135.752 C 195.456 135.876,193.926 136.162,192.178 136.388 C 187.705 136.966,186.317 137.208,185.400 137.572 C 184.960 137.746,183.880 138.109,183.000 138.377 C 179.595 139.416,175.765 140.938,175.000 141.555 C 173.800 142.522,172.485 143.200,171.805 143.200 C 171.472 143.200,171.200 143.380,171.200 143.600 C 171.200 143.820,170.898 144.000,170.528 144.000 C 169.266 144.000,165.308 146.146,164.584 147.223 C 164.187 147.815,163.461 148.546,162.971 148.849 C 160.906 150.126,155.092 155.539,153.800 157.387 C 153.360 158.017,152.811 158.727,152.581 158.966 C 152.351 159.205,151.605 160.210,150.923 161.200 C 150.242 162.190,149.351 163.390,148.942 163.866 C 148.534 164.343,147.916 165.073,147.569 165.490 C 146.541 166.725,144.441 171.176,144.147 172.744 C 143.997 173.545,143.542 174.790,143.137 175.512 C 142.732 176.234,142.400 177.168,142.400 177.589 C 142.400 178.009,142.220 178.464,142.000 178.600 C 141.780 178.736,141.600 179.557,141.600 180.424 L 141.600 182.000 152.100 181.997 L 162.600 181.994 163.100 180.917 C 163.375 180.325,163.600 179.347,163.600 178.744 C 163.600 178.141,163.748 177.556,163.928 177.445 C 164.108 177.333,164.584 175.838,164.985 174.121 C 165.952 169.988,167.149 167.115,168.894 164.743 C 170.349 162.765,171.600 160.750,171.600 160.382 C 171.600 160.172,171.780 160.000,172.000 160.000 C 172.220 160.000,172.400 159.794,172.400 159.543 C 172.400 158.588,177.321 153.196,180.643 150.510 C 186.064 146.127,186.546 145.867,190.800 145.017 C 192.670 144.644,194.513 144.172,194.895 143.969 C 195.789 143.494,203.677 143.488,204.881 143.962 C 205.387 144.160,207.330 144.647,209.200 145.044 C 212.970 145.844,213.687 146.141,215.650 147.718 C 216.392 148.314,218.085 149.657,219.411 150.701 C 220.736 151.746,222.626 153.500,223.611 154.600 C 224.595 155.700,225.511 156.690,225.647 156.800 C 225.783 156.910,226.962 158.629,228.267 160.621 C 229.571 162.612,231.125 164.879,231.719 165.659 C 232.314 166.438,232.800 167.286,232.800 167.543 C 232.800 167.800,232.959 168.323,233.153 168.705 C 233.924 170.220,234.365 171.463,234.606 172.800 C 234.881 174.324,236.239 179.139,236.890 180.900 L 237.297 182.000 247.849 182.000 L 258.400 182.000 258.400 180.624 C 258.400 179.867,258.220 179.136,258.000 179.000 C 257.780 178.864,257.600 178.409,257.600 177.989 C 257.600 177.568,257.278 176.634,256.884 175.912 C 256.490 175.190,255.923 173.610,255.623 172.400 C 254.917 169.547,253.945 167.719,251.287 164.238 C 250.095 162.677,248.282 160.247,247.260 158.837 C 246.237 157.427,244.931 155.807,244.357 155.237 C 243.024 153.912,238.087 149.543,237.243 148.941 C 236.889 148.689,235.865 147.780,234.967 146.921 C 234.069 146.063,232.449 145.040,231.367 144.648 C 228.702 143.683,225.952 142.369,225.083 141.643 C 224.309 140.998,223.513 140.671,218.600 138.986 C 216.840 138.382,215.040 137.744,214.600 137.569 C 214.160 137.393,213.080 137.141,212.200 137.009 C 211.320 136.877,209.430 136.590,208.000 136.372 C 204.820 135.887,195.884 135.441,195.578 135.752 M209.600 137.164 C 214.135 137.946,222.707 140.694,224.373 141.901 C 225.688 142.853,230.271 145.015,231.688 145.351 C 232.286 145.493,233.546 146.346,234.488 147.246 C 235.430 148.146,236.499 149.095,236.865 149.354 C 244.019 154.432,253.730 166.871,255.169 172.800 C 255.463 174.010,255.837 175.180,256.001 175.400 C 256.397 175.931,258.000 180.524,258.000 181.127 C 258.000 181.479,255.390 181.600,247.811 181.600 L 237.622 181.600 236.985 179.300 C 236.634 178.035,236.193 176.550,236.004 176.000 C 235.815 175.450,235.443 174.010,235.178 172.800 C 234.912 171.590,234.359 169.891,233.948 169.025 C 233.536 168.159,233.200 167.276,233.200 167.063 C 233.200 166.850,232.706 166.029,232.102 165.238 C 231.498 164.447,230.127 162.450,229.054 160.800 C 225.632 155.535,223.059 152.743,218.065 148.874 C 213.712 145.502,213.249 145.267,209.158 144.368 C 200.585 142.484,196.833 142.600,188.200 145.018 C 183.676 146.285,175.170 153.976,170.918 160.644 C 170.653 161.060,169.662 162.570,168.716 164.000 C 167.149 166.368,166.550 167.466,165.550 169.800 C 165.362 170.240,164.949 171.680,164.632 173.000 C 164.315 174.320,163.663 176.795,163.182 178.500 L 162.308 181.600 152.154 181.600 C 140.589 181.600,141.345 181.893,142.843 177.994 C 143.306 176.787,144.042 174.720,144.478 173.400 C 145.534 170.202,147.545 166.096,148.571 165.044 C 149.027 164.577,150.471 162.756,151.779 160.997 C 153.087 159.239,154.392 157.562,154.679 157.271 C 154.966 156.981,155.200 156.614,155.200 156.456 C 155.200 156.298,156.850 154.736,158.866 152.985 C 160.882 151.233,163.537 148.896,164.766 147.791 C 166.019 146.664,167.878 145.465,169.000 145.060 C 171.582 144.128,172.602 143.649,174.800 142.338 C 175.790 141.748,177.410 140.963,178.400 140.595 C 179.390 140.227,180.560 139.782,181.000 139.606 C 188.440 136.638,200.551 135.603,209.600 137.164 M265.184 156.790 C 265.502 156.987,265.926 157.046,266.126 156.922 C 266.326 156.799,266.663 156.946,266.875 157.249 C 267.193 157.704,267.233 157.696,267.099 157.206 C 267.010 156.879,266.413 156.572,265.772 156.523 C 264.947 156.459,264.775 156.537,265.184 156.790 M267.867 156.667 C 267.720 156.813,267.603 157.128,267.606 157.367 C 267.609 157.605,267.769 157.552,267.961 157.249 C 268.483 156.425,269.200 157.089,269.200 158.394 C 269.200 159.141,268.956 159.613,268.500 159.748 C 267.954 159.909,267.976 159.936,268.600 159.874 C 269.154 159.818,269.440 159.448,269.529 158.672 C 269.703 157.159,268.648 155.886,267.867 156.667 M264.367 158.509 C 264.581 159.566,264.826 159.809,265.719 159.849 C 266.739 159.894,266.745 159.886,265.805 159.722 C 265.063 159.593,264.800 159.298,264.800 158.597 C 264.800 158.075,264.644 157.551,264.452 157.432 C 264.261 157.314,264.222 157.799,264.367 158.509 M188.900 185.094 C 189.945 185.176,191.655 185.176,192.700 185.094 C 193.745 185.012,192.890 184.944,190.800 184.944 C 188.710 184.944,187.855 185.012,188.900 185.094 M254.324 185.099 C 257.473 185.167,262.513 185.167,265.524 185.099 C 268.536 185.031,265.960 184.976,259.800 184.976 C 253.640 184.976,251.176 185.032,254.324 185.099 M140.400 187.618 C 139.962 187.915,140.124 187.952,141.000 187.756 C 142.471 187.427,142.790 187.198,141.767 187.206 C 141.345 187.209,140.730 187.395,140.400 187.618 M145.200 189.400 C 145.946 190.170,146.647 190.800,146.757 190.800 C 146.867 190.800,146.346 190.170,145.600 189.400 C 144.854 188.630,144.153 188.000,144.043 188.000 C 143.933 188.000,144.454 188.630,145.200 189.400 M259.178 194.700 L 257.800 196.200 259.300 194.822 C 260.696 193.538,260.984 193.200,260.678 193.200 C 260.612 193.200,259.937 193.875,259.178 194.700 M149.331 199.000 C 149.333 200.540,149.405 201.121,149.492 200.291 C 149.579 199.461,149.577 198.201,149.489 197.491 C 149.400 196.781,149.329 197.460,149.331 199.000 M158.924 199.000 C 158.926 200.320,159.001 200.812,159.090 200.093 C 159.179 199.374,159.177 198.294,159.086 197.693 C 158.995 197.092,158.922 197.680,158.924 199.000 M226.700 203.895 C 227.855 203.976,229.745 203.976,230.900 203.895 C 232.055 203.814,231.110 203.748,228.800 203.748 C 226.490 203.748,225.545 203.814,226.700 203.895 M271.744 208.400 C 271.744 210.490,271.812 211.345,271.894 210.300 C 271.976 209.255,271.976 207.545,271.894 206.500 C 271.812 205.455,271.744 206.310,271.744 208.400 M226.300 205.496 C 227.675 205.574,229.925 205.574,231.300 205.496 C 232.675 205.418,231.550 205.354,228.800 205.354 C 226.050 205.354,224.925 205.418,226.300 205.496 M255.702 209.600 C 255.835 210.087,256.725 210.204,260.433 210.222 L 265.000 210.244 260.615 210.108 C 257.773 210.019,256.108 209.800,255.884 209.486 C 255.637 209.138,255.586 209.171,255.702 209.600 M141.105 210.283 C 141.602 210.379,142.322 210.375,142.705 210.275 C 143.087 210.175,142.680 210.096,141.800 210.101 C 140.920 210.105,140.607 210.187,141.105 210.283 M172.105 210.287 C 172.714 210.379,173.614 210.377,174.105 210.282 C 174.597 210.187,174.100 210.111,173.000 210.114 C 171.900 210.117,171.497 210.195,172.105 210.287 M196.918 210.298 C 198.633 210.373,201.333 210.372,202.918 210.297 C 204.503 210.221,203.100 210.159,199.800 210.160 C 196.500 210.161,195.203 210.222,196.918 210.298 M143.334 218.227 C 143.202 218.572,143.278 219.247,143.503 219.727 C 143.728 220.207,144.125 221.410,144.386 222.400 C 144.646 223.390,145.656 225.413,146.630 226.895 C 147.603 228.378,148.400 229.711,148.400 229.859 C 148.400 230.331,151.622 234.413,152.873 235.526 C 153.537 236.117,154.358 237.140,154.698 237.800 C 155.581 239.514,160.696 244.251,162.675 245.188 C 163.596 245.624,164.496 246.232,164.675 246.541 C 165.094 247.263,170.015 250.431,172.600 251.643 C 173.700 252.159,174.894 252.833,175.254 253.140 C 176.625 254.312,180.518 255.379,188.800 256.854 C 194.743 257.913,205.017 257.907,211.200 256.842 C 218.926 255.510,224.385 253.968,225.179 252.892 C 225.300 252.727,226.795 251.884,228.500 251.018 C 230.205 250.152,231.600 249.343,231.600 249.219 C 231.600 249.096,232.132 248.760,232.783 248.472 C 233.434 248.184,234.379 247.501,234.883 246.955 C 235.387 246.408,236.610 245.533,237.600 245.010 C 239.585 243.961,244.535 239.271,245.382 237.638 C 245.678 237.067,246.433 236.130,247.060 235.554 C 248.717 234.035,253.200 227.761,253.200 226.961 C 253.200 226.843,253.642 226.167,254.183 225.458 C 254.724 224.749,255.435 223.139,255.762 221.880 C 256.090 220.621,256.459 219.429,256.581 219.231 C 257.502 217.741,256.603 217.600,246.206 217.600 C 234.795 217.600,235.533 217.380,234.810 221.000 C 234.547 222.320,234.135 223.760,233.895 224.200 C 233.655 224.640,232.668 226.519,231.702 228.376 C 229.593 232.430,228.732 233.702,226.689 235.779 C 225.834 236.648,224.808 237.998,224.408 238.779 C 223.437 240.675,220.207 243.638,218.092 244.573 C 217.153 244.989,215.889 245.795,215.285 246.364 C 211.715 249.729,199.257 252.489,195.119 250.832 C 194.613 250.630,193.210 250.173,192.000 249.817 C 189.941 249.211,189.375 248.996,186.800 247.846 C 186.250 247.601,185.350 246.976,184.800 246.457 C 184.250 245.939,182.882 245.083,181.759 244.555 C 179.324 243.410,177.184 241.415,175.403 238.631 C 174.684 237.508,173.565 236.052,172.916 235.395 C 171.166 233.623,168.580 229.482,166.800 225.600 C 166.649 225.270,166.323 224.640,166.076 224.200 C 165.829 223.760,165.428 222.365,165.185 221.100 C 164.484 217.452,164.975 217.600,153.559 217.600 C 144.862 217.600,143.544 217.681,143.334 218.227 M164.505 220.793 C 165.016 224.346,169.588 232.826,172.704 236.000 C 173.460 236.770,174.417 238.060,174.830 238.866 C 175.781 240.721,179.356 244.207,180.970 244.853 C 181.646 245.124,183.280 246.094,184.600 247.008 C 193.548 253.205,209.295 252.954,215.932 246.510 C 216.224 246.226,217.453 245.509,218.663 244.917 C 220.868 243.837,225.200 239.669,225.200 238.627 C 225.200 238.337,225.998 237.267,226.973 236.250 C 229.287 233.835,229.917 232.911,232.190 228.600 C 233.234 226.620,234.234 224.819,234.412 224.597 C 234.590 224.376,234.990 222.936,235.301 221.397 L 235.867 218.600 245.925 218.493 L 255.983 218.386 255.735 219.693 C 255.599 220.412,255.333 221.303,255.144 221.674 C 254.955 222.044,254.800 222.641,254.800 222.999 C 254.800 223.991,248.301 233.707,246.608 235.246 C 245.789 235.991,244.842 237.134,244.505 237.786 C 243.615 239.504,239.307 243.493,237.122 244.621 C 236.090 245.154,235.100 245.839,234.922 246.142 C 234.592 246.708,229.947 249.745,227.800 250.799 C 227.140 251.123,225.790 251.862,224.800 252.440 C 221.960 254.099,218.401 255.059,209.600 256.540 C 206.183 257.115,193.307 257.102,190.000 256.520 C 181.762 255.071,177.979 254.065,175.600 252.691 C 174.830 252.247,173.030 251.257,171.600 250.492 C 168.435 248.798,165.513 246.841,165.078 246.124 C 164.901 245.832,163.966 245.190,163.000 244.697 C 160.891 243.620,155.600 238.932,155.600 238.141 C 155.600 237.832,154.799 236.778,153.820 235.799 C 152.011 233.990,148.800 229.940,148.800 229.468 C 148.800 229.325,148.024 227.991,147.075 226.504 C 145.677 224.313,144.000 220.039,144.000 218.667 C 144.000 218.513,148.543 218.434,154.095 218.493 L 164.189 218.600 164.505 220.793 " stroke="none" fill="#1c2657" fill-rule="evenodd"></path></g></svg>